<svg width="102" height="99" viewBox="0 0 102 99" fill="none" xmlns="http://www.w3.org/2000/svg">
<path fill-rule="evenodd" clip-rule="evenodd" d="M48.1956 0.653415C19.5566 1.98935 0 22.1953 0 49.9158C0 52.2652 0.184768 54.5398 0.461921 56.774C0.513887 57.1713 0.854553 57.4708 1.25296 57.4708H100.341C100.959 57.4708 101.461 56.9698 101.461 56.3536V51.7816C101.467 22.7539 77.2678 -0.699785 48.1956 0.653415ZM71.6554 39.8503H30.3193C29.7939 39.8503 29.407 39.3551 29.5514 38.8484C32.525 28.3797 39.9792 22.2298 50.9903 22.2298C62.2496 22.2298 69.4671 28.3797 72.4292 38.8484C72.5677 39.3551 72.1809 39.8503 71.6554 39.8503Z" fill="black"/>
<path d="M94.1168 73.8306H6.72719C6.30569 73.8306 6.03431 74.2855 6.2364 74.654C11.3637 83.8155 19.4589 90.8694 29.65 94.9751C36.0765 97.5664 43.3286 99.0002 51.2332 99.0002C58.6471 99.0002 65.5816 97.5606 71.8118 94.9751C81.5814 90.9155 89.59 83.9882 94.8039 75.0456C95.1157 74.5043 94.7404 73.8306 94.1168 73.8306Z" fill="black"/>
<path d="M94.1168 73.8306H6.72719C6.30569 73.8306 6.03431 74.2855 6.2364 74.654C11.3637 83.8155 19.4589 90.8694 29.65 94.9751C36.0765 97.5664 43.3286 99.0002 51.2332 99.0002C58.6471 99.0002 65.5816 97.5606 71.8118 94.9751C81.5814 90.9155 89.59 83.9882 94.8039 75.0456C95.1157 74.5043 94.7404 73.8306 94.1168 73.8306Z" fill="black"/>
<path d="M94.1168 73.8306H6.72719C6.30569 73.8306 6.03431 74.2855 6.2364 74.654C11.3637 83.8155 19.4589 90.8694 29.65 94.9751C36.0765 97.5664 43.3286 99.0002 51.2332 99.0002C58.6471 99.0002 65.5816 97.5606 71.8118 94.9751C81.5814 90.9155 89.59 83.9882 94.8039 75.0456C95.1157 74.5043 94.7404 73.8306 94.1168 73.8306Z" fill="black"/>
<path d="M94.1137 73.8223H6.72407C6.30257 73.8223 6.03119 74.2772 6.23328 74.6457C11.3606 83.8072 19.4558 90.8611 29.6469 94.9668C36.0733 97.5581 43.3255 98.9919 51.2301 98.9919C58.6439 98.9919 65.5785 97.5523 71.8087 94.9668C81.5783 90.9072 89.5868 83.9799 94.8008 75.0373C95.1126 74.496 94.7373 73.8223 94.1137 73.8223Z" fill="#007E6E"/>
<path d="M94.1137 73.8223H6.72407C6.30257 73.8223 6.03119 74.2772 6.23328 74.6457C11.3606 83.8072 19.4558 90.8611 29.6469 94.9668C36.0733 97.5581 43.3255 98.9919 51.2301 98.9919C58.6439 98.9919 65.5785 97.5523 71.8087 94.9668C81.5783 90.9072 89.5868 83.9799 94.8008 75.0373C95.1126 74.496 94.7373 73.8223 94.1137 73.8223Z" fill="#007E6E"/>
<path d="M94.1137 73.8223H6.72407C6.30257 73.8223 6.03119 74.2772 6.23328 74.6457C11.3606 83.8072 19.4558 90.8611 29.6469 94.9668C36.0733 97.5581 43.3255 98.9919 51.2301 98.9919C58.6439 98.9919 65.5785 97.5523 71.8087 94.9668C81.5783 90.9072 89.5868 83.9799 94.8008 75.0373C95.1126 74.496 94.7373 73.8223 94.1137 73.8223Z" fill="#007E6E"/>
<path d="M94.1137 73.8223H6.72407C6.30257 73.8223 6.03119 74.2772 6.23328 74.6457C11.3606 83.8072 19.4558 90.8611 29.6469 94.9668C36.0733 97.5581 43.3255 98.9919 51.2301 98.9919C58.6439 98.9919 65.5785 97.5523 71.8087 94.9668C81.5783 90.9072 89.5868 83.9799 94.8008 75.0373C95.1126 74.496 94.7373 73.8223 94.1137 73.8223Z" fill="#007E6E"/>
</svg>
