<?xml version="1.0" encoding="UTF-8"?>
<svg id="Layer_1" data-name="Layer 1" xmlns="http://www.w3.org/2000/svg" viewBox="0 0 72 72" style="background: #FFF; padding: 4px;">
  <defs>
    <style>
      .cls-1 {
        stroke-width: 0px;
      }
    </style>
  </defs>
  <path class="cls-1" d="m19.68,43.17c-3.01,0-5.3-.8-6.89-2.41-2.13-1.97-3.2-4.82-3.2-8.53s1.07-6.63,3.2-8.53c1.59-1.61,3.88-2.41,6.89-2.41s5.3.81,6.89,2.41c2.12,1.9,3.18,4.74,3.18,8.53s-1.06,6.56-3.18,8.53c-1.59,1.61-3.89,2.41-6.89,2.41Zm4.15-5.56c1.02-1.26,1.53-3.06,1.53-5.39s-.51-4.11-1.53-5.38-2.4-1.9-4.14-1.9-3.13.63-4.17,1.9c-1.04,1.26-1.55,3.06-1.55,5.39s.52,4.13,1.55,5.39c1.04,1.26,2.43,1.9,4.17,1.9s3.12-.63,4.15-1.9Z"/>
  <path class="cls-1" d="m50,49.58H2V1.58h48v48Zm-44.34-3.66h40.69V5.23H5.66v40.69Z"/>
  <path class="cls-1" d="m41.7,16.09h-1.39v-4.69h-1.62v-.91c.43-.02.73-.05.9-.08.27-.06.5-.18.67-.36.12-.12.21-.28.27-.49.04-.12.05-.21.05-.27h1.13v6.79Z"/>
</svg>